<svg xmlns="http://www.w3.org/2000/svg" viewBox="0 0 900 309" width="100%" role="img" aria-label="Tier C reference hosts by tier-0 leg, verdict cells, no rate"><text class="lbl" x="251" y="62" text-anchor="start" data-src="label" transform="rotate(-60 251 62)">A1</text><text class="lbl" x="276" y="62" text-anchor="start" data-src="label" transform="rotate(-60 276 62)">A2</text><text class="lbl" x="301" y="62" text-anchor="start" data-src="label" transform="rotate(-60 301 62)">A3</text><text class="lbl" x="326" y="62" text-anchor="start" data-src="label" transform="rotate(-60 326 62)">A4</text><text class="lbl" x="351" y="62" text-anchor="start" data-src="label" transform="rotate(-60 351 62)">A5</text><text class="lbl" x="376" y="62" text-anchor="start" data-src="label" transform="rotate(-60 376 62)">A6</text><text class="lbl" x="401" y="62" text-anchor="start" data-src="label" transform="rotate(-60 401 62)">A8</text><text class="lbl" x="426" y="62" text-anchor="start" data-src="label" transform="rotate(-60 426 62)">A9</text><text class="lbl" x="451" y="62" text-anchor="start" data-src="label" transform="rotate(-60 451 62)">A10</text><text class="lbl" x="476" y="62" text-anchor="start" data-src="label" transform="rotate(-60 476 62)">A11-declared</text><text class="lbl" x="501" y="62" text-anchor="start" data-src="label" transform="rotate(-60 501 62)">B3</text><text class="lbl" x="526" y="62" text-anchor="start" data-src="label" transform="rotate(-60 526 62)">D1</text><text class="lbl" x="551" y="62" text-anchor="start" data-src="label" transform="rotate(-60 551 62)">D4</text><text class="lbl" x="576" y="62" text-anchor="start" data-src="label" transform="rotate(-60 576 62)">F4</text><text class="lbl" x="601" y="62" text-anchor="start" data-src="label" transform="rotate(-60 601 62)">G1-D</text><text class="lbl" x="0" y="88" text-anchor="start" data-src="label">GSA · home</text><rect x="240" y="70" width="22" height="22" rx="2" fill="#e2e8f0"><title>GSA · home · A1 · not asked</title></rect><rect x="265" y="70" width="22" height="22" rx="2" fill="#e2e8f0"><title>GSA · home · A2 · not asked</title></rect><rect x="290" y="70" width="22" height="22" rx="2" fill="#e2e8f0"><title>GSA · home · A3 · not asked</title></rect><rect x="315" y="70" width="22" height="22" rx="2" fill="#059669"><title>GSA · home · A4 · pass</title></rect><rect x="340" y="70" width="22" height="22" rx="2" fill="#d97706"><title>GSA · home · A5 · fail</title></rect><rect x="365" y="70" width="22" height="22" rx="2" fill="#e2e8f0"><title>GSA · home · A6 · not asked</title></rect><rect x="390" y="70" width="22" height="22" rx="2" fill="#e2e8f0"><title>GSA · home · A8 · not asked</title></rect><rect x="415" y="70" width="22" height="22" rx="2" fill="#e2e8f0"><title>GSA · home · A9 · not asked</title></rect><rect x="440" y="70" width="22" height="22" rx="2" fill="#059669"><title>GSA · home · A10 · pass</title></rect><rect x="465" y="70" width="22" height="22" rx="2" fill="#059669"><title>GSA · home · A11-declared · pass</title></rect><rect x="490" y="70" width="22" height="22" rx="2" fill="#e2e8f0"><title>GSA · home · B3 · not asked</title></rect><rect x="515" y="70" width="22" height="22" rx="2" fill="#e2e8f0"><title>GSA · home · D1 · not asked</title></rect><rect x="540" y="70" width="22" height="22" rx="2" fill="#e2e8f0"><title>GSA · home · D4 · not asked</title></rect><rect x="565" y="70" width="22" height="22" rx="2" fill="#e2e8f0"><title>GSA · home · F4 · not asked</title></rect><rect x="590" y="70" width="22" height="22" rx="2" fill="#d97706"><title>GSA · home · G1-D · fail</title></rect><text class="lbl" x="0" y="113" text-anchor="start" data-src="label">GSA · machine</text><rect x="240" y="95" width="22" height="22" rx="2" fill="#e2e8f0"><title>GSA · machine · A1 · not asked</title></rect><rect x="265" y="95" width="22" height="22" rx="2" fill="#e2e8f0"><title>GSA · machine · A2 · not asked</title></rect><rect x="290" y="95" width="22" height="22" rx="2" fill="#e2e8f0"><title>GSA · machine · A3 · not asked</title></rect><rect x="315" y="95" width="22" height="22" rx="2" fill="#059669"><title>GSA · machine · A4 · pass</title></rect><rect x="340" y="95" width="22" height="22" rx="2" fill="#d97706"><title>GSA · machine · A5 · fail</title></rect><rect x="365" y="95" width="22" height="22" rx="2" fill="#e2e8f0"><title>GSA · machine · A6 · not asked</title></rect><rect x="390" y="95" width="22" height="22" rx="2" fill="#e2e8f0"><title>GSA · machine · A8 · not asked</title></rect><rect x="415" y="95" width="22" height="22" rx="2" fill="#e2e8f0"><title>GSA · machine · A9 · not asked</title></rect><rect x="440" y="95" width="22" height="22" rx="2" fill="#d97706"><title>GSA · machine · A10 · fail</title></rect><rect x="465" y="95" width="22" height="22" rx="2" fill="#059669"><title>GSA · machine · A11-declared · pass</title></rect><rect x="490" y="95" width="22" height="22" rx="2" fill="#e2e8f0"><title>GSA · machine · B3 · not asked</title></rect><rect x="515" y="95" width="22" height="22" rx="2" fill="#e2e8f0"><title>GSA · machine · D1 · not asked</title></rect><rect x="540" y="95" width="22" height="22" rx="2" fill="#e2e8f0"><title>GSA · machine · D4 · not asked</title></rect><rect x="565" y="95" width="22" height="22" rx="2" fill="#e2e8f0"><title>GSA · machine · F4 · not asked</title></rect><rect x="590" y="95" width="22" height="22" rx="2" fill="#d97706"><title>GSA · machine · G1-D · fail</title></rect><text class="lbl" x="0" y="138" text-anchor="start" data-src="label">GSA · well_known</text><rect x="240" y="120" width="22" height="22" rx="2" fill="#e2e8f0"><title>GSA · well_known · A1 · not asked</title></rect><rect x="265" y="120" width="22" height="22" rx="2" fill="#e2e8f0"><title>GSA · well_known · A2 · not asked</title></rect><rect x="290" y="120" width="22" height="22" rx="2" fill="#e2e8f0"><title>GSA · well_known · A3 · not asked</title></rect><rect x="315" y="120" width="22" height="22" rx="2" fill="#e2e8f0"><title>GSA · well_known · A4 · not asked</title></rect><rect x="340" y="120" width="22" height="22" rx="2" fill="#e2e8f0"><title>GSA · well_known · A5 · not asked</title></rect><rect x="365" y="120" width="22" height="22" rx="2" fill="#e2e8f0"><title>GSA · well_known · A6 · not asked</title></rect><rect x="390" y="120" width="22" height="22" rx="2" fill="#e2e8f0"><title>GSA · well_known · A8 · not asked</title></rect><rect x="415" y="120" width="22" height="22" rx="2" fill="#e2e8f0"><title>GSA · well_known · A9 · not asked</title></rect><rect x="440" y="120" width="22" height="22" rx="2" fill="#e2e8f0"><title>GSA · well_known · A10 · not asked</title></rect><rect x="465" y="120" width="22" height="22" rx="2" fill="#e2e8f0"><title>GSA · well_known · A11-declared · not asked</title></rect><rect x="490" y="120" width="22" height="22" rx="2" fill="#e2e8f0"><title>GSA · well_known · B3 · not asked</title></rect><rect x="515" y="120" width="22" height="22" rx="2" fill="#e2e8f0"><title>GSA · well_known · D1 · not asked</title></rect><rect x="540" y="120" width="22" height="22" rx="2" fill="#e2e8f0"><title>GSA · well_known · D4 · not asked</title></rect><rect x="565" y="120" width="22" height="22" rx="2" fill="#e2e8f0"><title>GSA · well_known · F4 · not asked</title></rect><rect x="590" y="120" width="22" height="22" rx="2" fill="#e2e8f0"><title>GSA · well_known · G1-D · not asked</title></rect><text class="lbl" x="0" y="163" text-anchor="start" data-src="label">NIST · home</text><rect x="240" y="145" width="22" height="22" rx="2" fill="#e2e8f0"><title>NIST · home · A1 · not asked</title></rect><rect x="265" y="145" width="22" height="22" rx="2" fill="#e2e8f0"><title>NIST · home · A2 · not asked</title></rect><rect x="290" y="145" width="22" height="22" rx="2" fill="#e2e8f0"><title>NIST · home · A3 · not asked</title></rect><rect x="315" y="145" width="22" height="22" rx="2" fill="#059669"><title>NIST · home · A4 · pass</title></rect><rect x="340" y="145" width="22" height="22" rx="2" fill="#d97706"><title>NIST · home · A5 · fail</title></rect><rect x="365" y="145" width="22" height="22" rx="2" fill="#e2e8f0"><title>NIST · home · A6 · not asked</title></rect><rect x="390" y="145" width="22" height="22" rx="2" fill="#e2e8f0"><title>NIST · home · A8 · not asked</title></rect><rect x="415" y="145" width="22" height="22" rx="2" fill="#e2e8f0"><title>NIST · home · A9 · not asked</title></rect><rect x="440" y="145" width="22" height="22" rx="2" fill="#059669"><title>NIST · home · A10 · pass</title></rect><rect x="465" y="145" width="22" height="22" rx="2" fill="#059669"><title>NIST · home · A11-declared · pass</title></rect><rect x="490" y="145" width="22" height="22" rx="2" fill="#e2e8f0"><title>NIST · home · B3 · not asked</title></rect><rect x="515" y="145" width="22" height="22" rx="2" fill="#e2e8f0"><title>NIST · home · D1 · not asked</title></rect><rect x="540" y="145" width="22" height="22" rx="2" fill="#e2e8f0"><title>NIST · home · D4 · not asked</title></rect><rect x="565" y="145" width="22" height="22" rx="2" fill="#e2e8f0"><title>NIST · home · F4 · not asked</title></rect><rect x="590" y="145" width="22" height="22" rx="2" fill="#d97706"><title>NIST · home · G1-D · fail</title></rect><text class="lbl" x="0" y="188" text-anchor="start" data-src="label">NIST · machine</text><rect x="240" y="170" width="22" height="22" rx="2" fill="#e2e8f0"><title>NIST · machine · A1 · not asked</title></rect><rect x="265" y="170" width="22" height="22" rx="2" fill="#e2e8f0"><title>NIST · machine · A2 · not asked</title></rect><rect x="290" y="170" width="22" height="22" rx="2" fill="#e2e8f0"><title>NIST · machine · A3 · not asked</title></rect><rect x="315" y="170" width="22" height="22" rx="2" fill="#059669"><title>NIST · machine · A4 · pass</title></rect><rect x="340" y="170" width="22" height="22" rx="2" fill="#d97706"><title>NIST · machine · A5 · fail</title></rect><rect x="365" y="170" width="22" height="22" rx="2" fill="#e2e8f0"><title>NIST · machine · A6 · not asked</title></rect><rect x="390" y="170" width="22" height="22" rx="2" fill="#e2e8f0"><title>NIST · machine · A8 · not asked</title></rect><rect x="415" y="170" width="22" height="22" rx="2" fill="#e2e8f0"><title>NIST · machine · A9 · not asked</title></rect><rect x="440" y="170" width="22" height="22" rx="2" fill="#d97706"><title>NIST · machine · A10 · fail</title></rect><rect x="465" y="170" width="22" height="22" rx="2" fill="#059669"><title>NIST · machine · A11-declared · pass</title></rect><rect x="490" y="170" width="22" height="22" rx="2" fill="#e2e8f0"><title>NIST · machine · B3 · not asked</title></rect><rect x="515" y="170" width="22" height="22" rx="2" fill="#e2e8f0"><title>NIST · machine · D1 · not asked</title></rect><rect x="540" y="170" width="22" height="22" rx="2" fill="#e2e8f0"><title>NIST · machine · D4 · not asked</title></rect><rect x="565" y="170" width="22" height="22" rx="2" fill="#e2e8f0"><title>NIST · machine · F4 · not asked</title></rect><rect x="590" y="170" width="22" height="22" rx="2" fill="#d97706"><title>NIST · machine · G1-D · fail</title></rect><text class="lbl" x="0" y="213" text-anchor="start" data-src="label">NIST · well_known</text><rect x="240" y="195" width="22" height="22" rx="2" fill="#e2e8f0"><title>NIST · well_known · A1 · not asked</title></rect><rect x="265" y="195" width="22" height="22" rx="2" fill="#e2e8f0"><title>NIST · well_known · A2 · not asked</title></rect><rect x="290" y="195" width="22" height="22" rx="2" fill="#e2e8f0"><title>NIST · well_known · A3 · not asked</title></rect><rect x="315" y="195" width="22" height="22" rx="2" fill="#e2e8f0"><title>NIST · well_known · A4 · not asked</title></rect><rect x="340" y="195" width="22" height="22" rx="2" fill="#e2e8f0"><title>NIST · well_known · A5 · not asked</title></rect><rect x="365" y="195" width="22" height="22" rx="2" fill="#e2e8f0"><title>NIST · well_known · A6 · not asked</title></rect><rect x="390" y="195" width="22" height="22" rx="2" fill="#e2e8f0"><title>NIST · well_known · A8 · not asked</title></rect><rect x="415" y="195" width="22" height="22" rx="2" fill="#e2e8f0"><title>NIST · well_known · A9 · not asked</title></rect><rect x="440" y="195" width="22" height="22" rx="2" fill="#e2e8f0"><title>NIST · well_known · A10 · not asked</title></rect><rect x="465" y="195" width="22" height="22" rx="2" fill="#e2e8f0"><title>NIST · well_known · A11-declared · not asked</title></rect><rect x="490" y="195" width="22" height="22" rx="2" fill="#e2e8f0"><title>NIST · well_known · B3 · not asked</title></rect><rect x="515" y="195" width="22" height="22" rx="2" fill="#e2e8f0"><title>NIST · well_known · D1 · not asked</title></rect><rect x="540" y="195" width="22" height="22" rx="2" fill="#e2e8f0"><title>NIST · well_known · D4 · not asked</title></rect><rect x="565" y="195" width="22" height="22" rx="2" fill="#e2e8f0"><title>NIST · well_known · F4 · not asked</title></rect><rect x="590" y="195" width="22" height="22" rx="2" fill="#e2e8f0"><title>NIST · well_known · G1-D · not asked</title></rect><text class="lbl" x="0" y="238" text-anchor="start" data-src="label">data.gov · home</text><rect x="240" y="220" width="22" height="22" rx="2" fill="#e2e8f0"><title>data.gov · home · A1 · not asked</title></rect><rect x="265" y="220" width="22" height="22" rx="2" fill="#e2e8f0"><title>data.gov · home · A2 · not asked</title></rect><rect x="290" y="220" width="22" height="22" rx="2" fill="#e2e8f0"><title>data.gov · home · A3 · not asked</title></rect><rect x="315" y="220" width="22" height="22" rx="2" fill="#059669"><title>data.gov · home · A4 · pass</title></rect><rect x="340" y="220" width="22" height="22" rx="2" fill="#d97706"><title>data.gov · home · A5 · fail</title></rect><rect x="365" y="220" width="22" height="22" rx="2" fill="#e2e8f0"><title>data.gov · home · A6 · not asked</title></rect><rect x="390" y="220" width="22" height="22" rx="2" fill="#e2e8f0"><title>data.gov · home · A8 · not asked</title></rect><rect x="415" y="220" width="22" height="22" rx="2" fill="#e2e8f0"><title>data.gov · home · A9 · not asked</title></rect><rect x="440" y="220" width="22" height="22" rx="2" fill="#059669"><title>data.gov · home · A10 · pass</title></rect><rect x="465" y="220" width="22" height="22" rx="2" fill="#059669"><title>data.gov · home · A11-declared · pass</title></rect><rect x="490" y="220" width="22" height="22" rx="2" fill="#e2e8f0"><title>data.gov · home · B3 · not asked</title></rect><rect x="515" y="220" width="22" height="22" rx="2" fill="#e2e8f0"><title>data.gov · home · D1 · not asked</title></rect><rect x="540" y="220" width="22" height="22" rx="2" fill="#e2e8f0"><title>data.gov · home · D4 · not asked</title></rect><rect x="565" y="220" width="22" height="22" rx="2" fill="#e2e8f0"><title>data.gov · home · F4 · not asked</title></rect><rect x="590" y="220" width="22" height="22" rx="2" fill="#d97706"><title>data.gov · home · G1-D · fail</title></rect><text class="lbl" x="0" y="263" text-anchor="start" data-src="label">data.gov · machine</text><rect x="240" y="245" width="22" height="22" rx="2" fill="#e2e8f0"><title>data.gov · machine · A1 · not asked</title></rect><rect x="265" y="245" width="22" height="22" rx="2" fill="#e2e8f0"><title>data.gov · machine · A2 · not asked</title></rect><rect x="290" y="245" width="22" height="22" rx="2" fill="#e2e8f0"><title>data.gov · machine · A3 · not asked</title></rect><rect x="315" y="245" width="22" height="22" rx="2" fill="#059669"><title>data.gov · machine · A4 · pass</title></rect><rect x="340" y="245" width="22" height="22" rx="2" fill="#64748b"><title>data.gov · machine · A5 · error</title></rect><rect x="365" y="245" width="22" height="22" rx="2" fill="#e2e8f0"><title>data.gov · machine · A6 · not asked</title></rect><rect x="390" y="245" width="22" height="22" rx="2" fill="#e2e8f0"><title>data.gov · machine · A8 · not asked</title></rect><rect x="415" y="245" width="22" height="22" rx="2" fill="#e2e8f0"><title>data.gov · machine · A9 · not asked</title></rect><rect x="440" y="245" width="22" height="22" rx="2" fill="#059669"><title>data.gov · machine · A10 · pass</title></rect><rect x="465" y="245" width="22" height="22" rx="2" fill="#059669"><title>data.gov · machine · A11-declared · pass</title></rect><rect x="490" y="245" width="22" height="22" rx="2" fill="#e2e8f0"><title>data.gov · machine · B3 · not asked</title></rect><rect x="515" y="245" width="22" height="22" rx="2" fill="#e2e8f0"><title>data.gov · machine · D1 · not asked</title></rect><rect x="540" y="245" width="22" height="22" rx="2" fill="#e2e8f0"><title>data.gov · machine · D4 · not asked</title></rect><rect x="565" y="245" width="22" height="22" rx="2" fill="#e2e8f0"><title>data.gov · machine · F4 · not asked</title></rect><rect x="590" y="245" width="22" height="22" rx="2" fill="#d97706"><title>data.gov · machine · G1-D · fail</title></rect><text class="lbl" x="0" y="288" text-anchor="start" data-src="label">data.gov · well_known</text><rect x="240" y="270" width="22" height="22" rx="2" fill="#e2e8f0"><title>data.gov · well_known · A1 · not asked</title></rect><rect x="265" y="270" width="22" height="22" rx="2" fill="#e2e8f0"><title>data.gov · well_known · A2 · not asked</title></rect><rect x="290" y="270" width="22" height="22" rx="2" fill="#e2e8f0"><title>data.gov · well_known · A3 · not asked</title></rect><rect x="315" y="270" width="22" height="22" rx="2" fill="#e2e8f0"><title>data.gov · well_known · A4 · not asked</title></rect><rect x="340" y="270" width="22" height="22" rx="2" fill="#e2e8f0"><title>data.gov · well_known · A5 · not asked</title></rect><rect x="365" y="270" width="22" height="22" rx="2" fill="#e2e8f0"><title>data.gov · well_known · A6 · not asked</title></rect><rect x="390" y="270" width="22" height="22" rx="2" fill="#e2e8f0"><title>data.gov · well_known · A8 · not asked</title></rect><rect x="415" y="270" width="22" height="22" rx="2" fill="#e2e8f0"><title>data.gov · well_known · A9 · not asked</title></rect><rect x="440" y="270" width="22" height="22" rx="2" fill="#e2e8f0"><title>data.gov · well_known · A10 · not asked</title></rect><rect x="465" y="270" width="22" height="22" rx="2" fill="#e2e8f0"><title>data.gov · well_known · A11-declared · not asked</title></rect><rect x="490" y="270" width="22" height="22" rx="2" fill="#e2e8f0"><title>data.gov · well_known · B3 · not asked</title></rect><rect x="515" y="270" width="22" height="22" rx="2" fill="#e2e8f0"><title>data.gov · well_known · D1 · not asked</title></rect><rect x="540" y="270" width="22" height="22" rx="2" fill="#e2e8f0"><title>data.gov · well_known · D4 · not asked</title></rect><rect x="565" y="270" width="22" height="22" rx="2" fill="#e2e8f0"><title>data.gov · well_known · F4 · not asked</title></rect><rect x="590" y="270" width="22" height="22" rx="2" fill="#e2e8f0"><title>data.gov · well_known · G1-D · not asked</title></rect></svg>
